<svg width="38" height="38" viewBox="0 0 38 38" fill="none" xmlns="http://www.w3.org/2000/svg">
<rect x="-0.0078125" y="0.0957031" width="37.024" height="37.024" rx="10.68" fill="#F9F9F9"/>
<path d="M18.4655 14.5709C16.2544 14.5709 14.4709 16.3544 14.4709 18.5655C14.4709 20.7766 16.2544 22.5601 18.4655 22.5601C20.6766 22.5601 22.46 20.7766 22.46 18.5655C22.46 16.3544 20.6766 14.5709 18.4655 14.5709ZM18.4655 21.1625C17.0366 21.1625 15.8685 19.9978 15.8685 18.5655C15.8685 17.1332 17.0331 15.9685 18.4655 15.9685C19.8978 15.9685 21.0625 17.1332 21.0625 18.5655C21.0625 19.9978 19.8943 21.1625 18.4655 21.1625ZM23.5551 14.4075C23.5551 14.9255 23.138 15.3392 22.6234 15.3392C22.1054 15.3392 21.6917 14.9221 21.6917 14.4075C21.6917 13.893 22.1089 13.4758 22.6234 13.4758C23.138 13.4758 23.5551 13.893 23.5551 14.4075ZM26.2008 15.3532C26.1417 14.1051 25.8566 12.9995 24.9423 12.0887C24.0314 11.1778 22.9259 10.8927 21.6778 10.8301C20.3915 10.7571 16.536 10.7571 15.2496 10.8301C14.005 10.8892 12.8995 11.1743 11.9851 12.0852C11.0708 12.996 10.7892 14.1016 10.7266 15.3497C10.6536 16.636 10.6536 20.4915 10.7266 21.7778C10.7857 23.0259 11.0708 24.1315 11.9851 25.0423C12.8995 25.9532 14.0016 26.2383 15.2496 26.3008C16.536 26.3739 20.3915 26.3739 21.6778 26.3008C22.9259 26.2417 24.0314 25.9567 24.9423 25.0423C25.8532 24.1315 26.1382 23.0259 26.2008 21.7778C26.2738 20.4915 26.2738 16.6395 26.2008 15.3532ZM24.539 23.158C24.2678 23.8394 23.7429 24.3644 23.058 24.6391C22.0324 25.0458 19.5988 24.9519 18.4655 24.9519C17.3321 24.9519 14.895 25.0423 13.8729 24.6391C13.1915 24.3679 12.6666 23.8429 12.3919 23.158C11.9851 22.1325 12.079 19.6989 12.079 18.5655C12.079 17.4321 11.9886 14.9951 12.3919 13.973C12.6631 13.2916 13.188 12.7666 13.8729 12.4919C14.8985 12.0852 17.3321 12.1791 18.4655 12.1791C19.5988 12.1791 22.0359 12.0887 23.058 12.4919C23.7394 12.7631 24.2644 13.2881 24.539 13.973C24.9458 14.9985 24.8519 17.4321 24.8519 18.5655C24.8519 19.6989 24.9458 22.1359 24.539 23.158Z" fill="#2A2F2F"/>
</svg>
