<svg width="38" height="38" viewBox="0 0 38 38" fill="none" xmlns="http://www.w3.org/2000/svg">
<rect x="0.976562" y="0.0957031" width="37.024" height="37.024" rx="10.68" fill="#F9F9F9"/>
<path d="M13.5292 25.3672V16.7377H15.6652V25.3672H13.5292ZM13.4096 15.1144V13.0296H15.7848V15.1144H13.4096ZM18.3265 25.3672V18.8908C18.3265 18.5377 18.3151 18.1788 18.2923 17.8143C18.2695 17.4497 18.2354 17.0909 18.1898 16.7377H20.2574L20.4283 18.4465H20.2233C20.4967 17.8428 20.9011 17.3814 21.4365 17.0624C21.9719 16.7321 22.5928 16.5669 23.2991 16.5669C24.313 16.5669 25.0763 16.8517 25.5889 17.4213C26.1015 17.9909 26.3579 18.8794 26.3579 20.087V25.3672H24.2219V20.1895C24.2219 19.4946 24.0852 18.9991 23.8117 18.7029C23.5497 18.3953 23.151 18.2415 22.6156 18.2415C21.9548 18.2415 21.4308 18.4465 21.0435 18.8567C20.6562 19.2668 20.4625 19.8136 20.4625 20.4971V25.3672H18.3265Z" fill="#2A2F2F"/>
</svg>
