<svg width="38" height="38" viewBox="0 0 38 38" fill="none" xmlns="http://www.w3.org/2000/svg">
<rect x="0.984375" y="0.0957031" width="37.024" height="37.024" rx="10.68" fill="#F9F9F9"/>
<path d="M28.3453 15.0912C28.3566 15.2493 28.3566 15.4074 28.3566 15.5656C28.3566 20.3882 24.6859 25.9451 17.977 25.9451C15.9101 25.9451 13.9901 25.3465 12.375 24.3074C12.6687 24.3413 12.951 24.3526 13.256 24.3526C14.9614 24.3526 16.5313 23.7766 17.785 22.794C16.1812 22.7601 14.8372 21.7097 14.3741 20.264C14.6 20.2979 14.8259 20.3205 15.0631 20.3205C15.3906 20.3205 15.7182 20.2753 16.0231 20.1963C14.3515 19.8574 13.0978 18.3892 13.0978 16.6159V16.5708C13.5835 16.8418 14.1482 17.0113 14.7468 17.0338C13.7642 16.3787 13.1204 15.2606 13.1204 13.9956C13.1204 13.318 13.3011 12.6968 13.6173 12.1546C15.4132 14.3683 18.1125 15.814 21.1394 15.9721C21.083 15.7011 21.0491 15.4187 21.0491 15.1364C21.0491 13.126 22.6755 11.4883 24.6972 11.4883C25.7475 11.4883 26.6962 11.9288 27.3626 12.6403C28.1871 12.4822 28.9777 12.1772 29.678 11.7593C29.4069 12.6064 28.8309 13.318 28.0742 13.7697C28.8083 13.6907 29.5199 13.4874 30.1749 13.205C29.6781 13.9279 29.0568 14.5716 28.3453 15.0912Z" fill="#2A2F2F"/>
</svg>
